# Alias OBJ Model File
# Exported from SketchUp, (c) 2000-2006 Google, Inc.
# File units = feet

mtllib Untitled.mtl

g Mesh1 Model

usemtl FrontColor
v 123.5 110.188 0
vt 1482 1322.25
vn 0 0 1
v 0 110.188 0
vt 0 1322.25
v 0 0 0
vt 0 0
v 123.5 0 0
vt 1482 0
f 1/1/1 2/2/1 3/3/1 4/4/1 

v 123.708 -64.3586 0
vt 1484.5 -772.304
v 123.708 0 0
vt 1484.5 0
v 0 -51.9307 0
vt 0 -623.169
v 0 -64.3586 0
vt 0 -772.304
f 5/5/1 6/6/1 4/4/1 3/3/1 7/7/1 8/8/1 

v 123.708 110 0
vt 1484.5 1320
v 123.708 -104.594 0
vt 1484.5 -1255.13
v 123.708 -209.188 0
vt 1484.5 -2510.25
v 338.042 -209.188 0
vt 4056.5 -2510.25
v 338.042 110 0
vt 4056.5 1320
f 9/9/1 6/6/1 5/5/1 10/10/1 11/11/1 12/12/1 13/13/1 

v 0 -118.306 0
vt 0 -1419.67
v 0 -209.188 0
vt 0 -2510.25
v 0 -104.594 0
vt 0 -1255.13
f 14/14/1 15/15/1 11/11/1 10/10/1 16/16/1 

v -16.0417 -51.9307 0
vt -192.5 -623.169
v -16.0417 -86.2595 0
vt -192.5 -1035.11
v -16.0417 -95.2595 0
vt -192.5 -1143.11
v -16.0417 -118.306 0
vt -192.5 -1419.67
f 14/14/1 16/16/1 8/8/1 7/7/1 17/17/1 18/18/1 19/19/1 20/20/1 

v -144.604 -86.2595 0
vt -1735.25 -1035.11
v -144.604 -95.2595 0
vt -1735.25 -1143.11
f 18/18/1 21/21/1 22/22/1 19/19/1 

usemtl EXITEXIT
v -144.604 -35.822 0
vt -1735.25 -429.865
v -188.021 -35.822 0
vt -2256.25 -429.865
v -188.021 -95.2595 0
vt -2256.25 -1143.11
f 21/21/1 23/23/1 24/24/1 25/25/1 22/22/1 

